<svg width="18" height="23" viewBox="0 0 18 23" fill="none" xmlns="http://www.w3.org/2000/svg">
<path d="M14.7973 12.3001C14.8081 11.4654 15.0298 10.647 15.4418 9.92109C15.8538 9.19514 16.4428 8.5852 17.1539 8.14803C16.7021 7.50287 16.1062 6.97192 15.4134 6.59737C14.7205 6.22282 13.9499 6.01498 13.1627 5.99035C11.4835 5.81409 9.85552 6.99518 8.99981 6.99518C8.12754 6.99518 6.81004 6.00785 5.39131 6.03704C4.47364 6.06668 3.57929 6.33354 2.79541 6.8116C2.01154 7.28965 1.36486 7.96261 0.918393 8.7649C-1.01561 12.1133 0.426982 17.0344 2.27959 19.741C3.20649 21.0663 4.28977 22.5468 5.70722 22.4943C7.09428 22.4368 7.61232 21.6098 9.28662 21.6098C10.9454 21.6098 11.4314 22.4943 12.8776 22.4609C14.366 22.4367 15.3038 21.1297 16.1981 19.7918C16.8641 18.8474 17.3766 17.8037 17.7166 16.6993C16.8518 16.3335 16.1139 15.7213 15.5948 14.9391C15.0757 14.1568 14.7983 13.239 14.7973 12.3001V12.3001Z" fill="white"/>
<path d="M12.0656 4.21035C12.8772 3.23614 13.277 1.98396 13.1802 0.719727C11.9403 0.849947 10.7951 1.44251 9.97259 2.37934C9.57045 2.837 9.26245 3.36944 9.0662 3.94621C8.86996 4.52298 8.78931 5.13277 8.82888 5.74073C9.44902 5.74711 10.0625 5.6127 10.6232 5.34761C11.1838 5.08252 11.6771 4.69367 12.0656 4.21035Z" fill="white"/>
</svg>
