<svg width="37" height="35" viewBox="0 0 37 35" fill="none" xmlns="http://www.w3.org/2000/svg">
<path opacity="0.5" fill-rule="evenodd" clip-rule="evenodd" d="M35.071 21.945C33.181 19.8898 29.9136 20.1747 28.3914 22.5061C26.8661 20.1708 23.5948 19.8922 21.7071 21.9496C20.1114 23.6894 20.2937 26.4238 21.949 28.1064L27.8318 34.0856C28.1386 34.397 28.641 34.397 28.9478 34.0856L34.8323 28.1064C36.4906 26.4223 36.6706 23.6839 35.071 21.945Z" fill="#EB5757"/>
<path fill-rule="evenodd" clip-rule="evenodd" d="M15.087 21.3478H7.26088C6.8281 21.3478 6.47827 20.9972 6.47827 20.5652C6.47827 20.1332 6.8281 19.7826 7.26088 19.7826H15.087C15.5197 19.7826 15.8696 20.1332 15.8696 20.5652C15.8696 20.9972 15.5197 21.3478 15.087 21.3478Z" fill="#EB5757"/>
<path fill-rule="evenodd" clip-rule="evenodd" d="M3.13043 0H32.8696C34.596 0 36 1.404 36 3.13043V17.2174H34.4348V13.3043H1.56522V23.4783C1.56522 24.3415 2.26722 25.0435 3.13043 25.0435H15.6522V26.6087H3.13043C1.404 26.6087 0 25.2047 0 23.4783V3.13043C0 1.404 1.404 0 3.13043 0ZM1.56522 7.04348H34.4348V3.13043C34.4348 2.26722 33.7328 1.56522 32.8696 1.56522H3.13043C2.26722 1.56522 1.56522 2.26722 1.56522 3.13043V7.04348Z" fill="#EB5757"/>
</svg>
