<svg width="36" height="36" viewBox="0 0 36 36" fill="none" xmlns="http://www.w3.org/2000/svg">
<path opacity="0.5" fill-rule="evenodd" clip-rule="evenodd" d="M8.03906 4.12591L9.14567 5.23252C11.494 2.8841 14.679 1.56476 18.0001 1.56476C21.3212 1.56476 24.5062 2.8841 26.8545 5.23252L27.9611 4.12591C25.3193 1.48406 21.7362 -0.00012207 18.0001 -0.00012207C14.264 -0.00012207 10.6809 1.48406 8.03906 4.12591V4.12591Z" fill="#EB5757"/>
<path opacity="0.5" fill-rule="evenodd" clip-rule="evenodd" d="M17.9999 6.26087C15.9237 6.25814 13.9322 7.08311 12.4661 8.55313L13.5727 9.65974C14.7468 8.48553 16.3393 7.82586 17.9999 7.82586C19.6604 7.82586 21.253 8.48553 22.4271 9.65974L23.5337 8.55313C22.0676 7.08311 20.076 6.25814 17.9999 6.26087V6.26087Z" fill="#EB5757"/>
<path fill-rule="evenodd" clip-rule="evenodd" d="M23.4782 28.1739V25.6077L21.6657 25.0028C21.458 24.9332 21.289 24.7797 21.1997 24.5796C21.1105 24.3795 21.1092 24.1512 21.1961 23.9502L23.4782 18.6832V17.2174C23.4681 14.1031 24.8895 11.1568 27.3334 9.22643C29.7773 7.29605 32.9726 6.59565 35.9999 7.32678V35.2174H29.7391V31.3043H26.6086C24.8797 31.3043 23.4782 29.9028 23.4782 28.1739Z" fill="#EB5757"/>
<path fill-rule="evenodd" clip-rule="evenodd" d="M12.5217 28.1739V25.6077L14.3343 25.0028C14.542 24.9332 14.711 24.7797 14.8002 24.5796C14.8895 24.3796 14.8908 24.1513 14.8038 23.9502L12.5217 18.6832V17.2174C12.5217 11.5985 7.96672 7.04349 2.34783 7.04349C1.55687 7.04644 0.768954 7.14152 0 7.32679V35.2174H6.26087V31.3044H9.3913C11.1202 31.3044 12.5217 29.9028 12.5217 28.1739Z" fill="#EB5757"/>
<path opacity="0.5" fill-rule="evenodd" clip-rule="evenodd" d="M18 15.6522C18.8645 15.6522 19.5652 14.9514 19.5652 14.0869C19.5652 13.2225 18.8645 12.5217 18 12.5217C17.1356 12.5217 16.4348 13.2225 16.4348 14.0869C16.4348 14.9514 17.1356 15.6522 18 15.6522Z" fill="#EB5757"/>
</svg>
