<svg width="25" height="26" viewBox="0 0 25 26" fill="none" xmlns="http://www.w3.org/2000/svg">
<path d="M1.43518 0.537688C1.10727 0.92976 0.941696 1.43239 0.972384 1.94259V24.0587C0.941607 24.5689 1.10719 25.0716 1.43518 25.4636L1.50918 25.5357L13.8982 13.1468V12.8545L1.50918 0.465088L1.43518 0.537688Z" fill="url(#paint0_linear)"/>
<path d="M18.0276 17.2782L13.8982 13.1468V12.8545L18.0286 8.72412L18.1217 8.77722L23.0145 11.5573C24.4121 12.3513 24.4121 13.6505 23.0145 14.445L18.1217 17.2251L18.0276 17.2782Z" fill="url(#paint1_linear)"/>
<path d="M18.1218 17.2246L13.8983 13.0007L1.4353 25.4636C1.72007 25.7148 2.08373 25.8584 2.46326 25.8696C2.8428 25.8808 3.2143 25.7589 3.5134 25.525L18.1218 17.2246Z" fill="url(#paint2_linear)"/>
<path d="M18.1218 8.77657L3.5134 0.476169C3.2143 0.242262 2.8428 0.120356 2.46326 0.131569C2.08373 0.142783 1.72007 0.286411 1.4353 0.537569L13.8983 13.0006L18.1218 8.77657Z" fill="url(#paint3_linear)"/>
<path opacity="0.2" d="M18.0287 17.1316L3.5134 25.3789C3.22582 25.5978 2.87482 25.7173 2.51339 25.7192C2.15196 25.7211 1.79971 25.6054 1.5098 25.3896L1.4353 25.4641L1.5093 25.5362L1.5098 25.5357C1.79966 25.7517 2.15193 25.8674 2.51339 25.8655C2.87485 25.8636 3.22587 25.744 3.5134 25.525L18.1218 17.2246L18.0287 17.1316Z" fill="black"/>
<path opacity="0.12" d="M1.43516 25.318C1.10728 24.9259 0.941709 24.4233 0.972361 23.9131V24.0592C0.941691 24.5694 1.10726 25.072 1.43516 25.4641L1.50966 25.3896L1.43516 25.318Z" fill="black"/>
<path opacity="0.12" d="M23.0145 14.2983L18.0286 17.1315L18.1217 17.2245L23.0145 14.4444C23.3023 14.3195 23.5513 14.1197 23.7357 13.8658C23.9201 13.612 24.033 13.3133 24.0628 13.001C24.0009 13.2838 23.8739 13.5484 23.692 13.7735C23.51 13.9987 23.278 14.1784 23.0145 14.2983V14.2983Z" fill="black"/>
<defs>
<linearGradient id="paint0_linear" x1="12.7995" y1="1.7094" x2="-3.98289" y2="18.4918" gradientUnits="userSpaceOnUse">
<stop stop-color="#00A0FF"/>
<stop offset="0.00657" stop-color="#00A1FF"/>
<stop offset="0.2601" stop-color="#00BEFF"/>
<stop offset="0.5122" stop-color="#00D2FF"/>
<stop offset="0.7604" stop-color="#00DFFF"/>
<stop offset="1" stop-color="#00E3FF"/>
</linearGradient>
<linearGradient id="paint1_linear" x1="24.8342" y1="13.0012" x2="0.637275" y2="13.0012" gradientUnits="userSpaceOnUse">
<stop stop-color="#FFE000"/>
<stop offset="0.4087" stop-color="#FFBD00"/>
<stop offset="0.7754" stop-color="#FFA500"/>
<stop offset="1" stop-color="#FF9C00"/>
</linearGradient>
<linearGradient id="paint2_linear" x1="15.8269" y1="15.2958" x2="-6.93143" y2="38.0541" gradientUnits="userSpaceOnUse">
<stop stop-color="#FF3A44"/>
<stop offset="1" stop-color="#C31162"/>
</linearGradient>
<linearGradient id="paint3_linear" x1="-1.70277" y1="-6.82425" x2="8.45975" y2="3.33827" gradientUnits="userSpaceOnUse">
<stop stop-color="#32A071"/>
<stop offset="0.0685" stop-color="#2DA771"/>
<stop offset="0.4762" stop-color="#15CF74"/>
<stop offset="0.8009" stop-color="#06E775"/>
<stop offset="1" stop-color="#00F076"/>
</linearGradient>
</defs>
</svg>
